<svg width="43" height="43" viewBox="0 0 43 43" fill="none" xmlns="http://www.w3.org/2000/svg">
<path d="M16.0376 34.782L35.2857 15.5338M35.2857 15.5338L27.1654 7.41353M35.2857 15.5338L38.2932 18.5414L27.7669 29.0677M27.1654 7.41353L31.9774 2.6015L34.6842 5.30827M27.1654 7.41353L24.4586 10.1203M2.20301 40.1955L4.00752 30.5714L24.4586 10.1203M2.20301 40.1955L10.6241 39.594L13.3308 37.4887L7.91729 32.0752M2.20301 40.1955L1 41.3985M37.6917 13.1278L40.0977 10.7218L34.6842 5.30827M34.6842 5.30827L37.9925 2L41 5.00752L39.1955 6.81203M24.4586 10.1203L28.6692 14.3308" stroke="#2C2C2C" stroke-width="2"/>
</svg>
