<svg width="24" height="24" viewBox="0 0 24 24" fill="none" xmlns="http://www.w3.org/2000/svg">
<path d="M13.7703 2C13.7703 1.17157 13.0987 0.5 12.2703 0.5C11.4418 0.5 10.7703 1.17157 10.7703 2H13.7703ZM10.7703 22C10.7703 22.8284 11.4418 23.5 12.2703 23.5C13.0987 23.5 13.7703 22.8284 13.7703 22H10.7703ZM22 13.2297C22.8284 13.2297 23.5 12.5582 23.5 11.7297C23.5 10.9013 22.8284 10.2297 22 10.2297L22 13.2297ZM2 10.2297C1.17157 10.2297 0.5 10.9013 0.5 11.7297C0.5 12.5582 1.17157 13.2297 2 13.2297L2 10.2297ZM10.7703 2V22H13.7703V2H10.7703ZM22 10.2297L2 10.2297L2 13.2297L22 13.2297L22 10.2297Z" fill="#2C2C2C"/>
</svg>
