<svg width="21" height="21" viewBox="0 0 21 21" fill="none" xmlns="http://www.w3.org/2000/svg">
<path d="M6 2H15V0H6V2ZM19 6V15H21V6H19ZM15 19H6V21H15V19ZM2 15V6H0V15H2ZM6 19C3.79086 19 2 17.2091 2 15H0C0 18.3137 2.68629 21 6 21V19ZM19 15C19 17.2091 17.2091 19 15 19V21C18.3137 21 21 18.3137 21 15H19ZM15 2C17.2091 2 19 3.79086 19 6H21C21 2.68629 18.3137 0 15 0V2ZM6 0C2.68629 0 0 2.68629 0 6H2C2 3.79086 3.79086 2 6 2V0ZM5.29289 6.70711L9.79289 11.2071L11.2071 9.79289L6.70711 5.29289L5.29289 6.70711ZM9.79289 11.2071L14.2929 15.7071L15.7071 14.2929L11.2071 9.79289L9.79289 11.2071ZM14.2929 5.29289L9.79289 9.79289L11.2071 11.2071L15.7071 6.70711L14.2929 5.29289ZM9.79289 9.79289L5.29289 14.2929L6.70711 15.7071L11.2071 11.2071L9.79289 9.79289Z" fill="#B6373F"/>
</svg>
